<mxfile host="app.diagrams.net" modified="2022-11-07T20:03:23.275Z" agent="5.0 (X11)" etag="AQUQFTO7hOuB2na1NmG_" version="20.5.1" type="github">
  <diagram name="Page-1" id="c9db0220-8083-56f3-ca83-edcdcd058819">
    <mxGraphModel dx="1422" dy="755" grid="1" gridSize="10" guides="1" tooltips="1" connect="1" arrows="1" fold="1" page="1" pageScale="1.5" pageWidth="826" pageHeight="1169" background="#ffffff" math="0" shadow="0">
      <root>
        <mxCell id="0" style=";html=1;" />
        <mxCell id="1" style=";html=1;" parent="0" />
        <mxCell id="SYRkoXEtB8n94cKElQvw-8" style="edgeStyle=orthogonalEdgeStyle;rounded=0;orthogonalLoop=1;jettySize=auto;html=1;exitX=0.5;exitY=1;exitDx=0;exitDy=0;" edge="1" parent="1" source="Y6NmxUzX9inObwIOkbRW-29">
          <mxGeometry relative="1" as="geometry">
            <mxPoint x="620" y="280" as="targetPoint" />
          </mxGeometry>
        </mxCell>
        <mxCell id="Y6NmxUzX9inObwIOkbRW-29" value="Inicio" style="html=1;shadow=0;dashed=0;fillColor=#6BFFF2;strokeColor=none;fontSize=16;fontColor=#ffffff;align=left;spacing=15;fontStyle=0" parent="1" vertex="1">
          <mxGeometry x="220" y="230" width="800" height="60" as="geometry" />
        </mxCell>
        <mxCell id="Y6NmxUzX9inObwIOkbRW-30" value="creadores" style="fillColor=none;strokeColor=none;fontSize=14;fontColor=#000000;align=center;fontStyle=1" parent="Y6NmxUzX9inObwIOkbRW-29" vertex="1">
          <mxGeometry width="70" height="40" relative="1" as="geometry">
            <mxPoint x="90" y="10" as="offset" />
          </mxGeometry>
        </mxCell>
        <mxCell id="Y6NmxUzX9inObwIOkbRW-31" value="La banda" style="fillColor=none;strokeColor=none;fontSize=14;fontColor=#000000;align=center;fontStyle=1" parent="Y6NmxUzX9inObwIOkbRW-29" vertex="1">
          <mxGeometry width="70" height="40" relative="1" as="geometry">
            <mxPoint x="180" y="10" as="offset" />
          </mxGeometry>
        </mxCell>
        <mxCell id="Y6NmxUzX9inObwIOkbRW-32" value="integrantes" style="fillColor=none;strokeColor=none;fontSize=14;fontColor=#000000;align=center;spacingRight=0;fontStyle=1" parent="Y6NmxUzX9inObwIOkbRW-29" vertex="1">
          <mxGeometry width="80" height="40" relative="1" as="geometry">
            <mxPoint x="270" y="10" as="offset" />
          </mxGeometry>
        </mxCell>
        <mxCell id="Y6NmxUzX9inObwIOkbRW-33" value="album/canciones" style="fillColor=none;strokeColor=none;fontSize=14;fontColor=#000000;align=center;fontStyle=1" parent="Y6NmxUzX9inObwIOkbRW-29" vertex="1">
          <mxGeometry width="80" height="40" relative="1" as="geometry">
            <mxPoint x="400" y="10" as="offset" />
          </mxGeometry>
        </mxCell>
        <mxCell id="Y6NmxUzX9inObwIOkbRW-34" value="Search" style="html=1;shadow=0;dashed=0;shape=mxgraph.bootstrap.rrect;rSize=5;fontSize=14;fontColor=#000000;strokeColor=#ffffff;fillColor=none;" parent="Y6NmxUzX9inObwIOkbRW-29" vertex="1">
          <mxGeometry x="1" width="70" height="40" relative="1" as="geometry">
            <mxPoint x="-80" y="10" as="offset" />
          </mxGeometry>
        </mxCell>
        <mxCell id="Y6NmxUzX9inObwIOkbRW-35" value="Search" style="html=1;shadow=0;dashed=0;shape=mxgraph.bootstrap.rrect;rSize=5;fontSize=14;fontColor=#000000;strokeColor=#CED4DA;fillColor=#ffffff;align=left;spacing=10;" parent="Y6NmxUzX9inObwIOkbRW-29" vertex="1">
          <mxGeometry x="1" width="180" height="40" relative="1" as="geometry">
            <mxPoint x="-270" y="10" as="offset" />
          </mxGeometry>
        </mxCell>
        <mxCell id="SYRkoXEtB8n94cKElQvw-9" value="" style="rounded=0;whiteSpace=wrap;html=1;fontColor=#000000;fillColor=#6BFFF2;" vertex="1" parent="1">
          <mxGeometry x="520" y="140" width="200" height="60" as="geometry" />
        </mxCell>
        <mxCell id="SYRkoXEtB8n94cKElQvw-16" value="&lt;font style=&quot;font-size: 22px;&quot;&gt;Gorillaz &lt;font style=&quot;font-size: 22px;&quot;&gt;-&lt;/font&gt; site&lt;/font&gt;" style="text;html=1;align=center;verticalAlign=middle;resizable=0;points=[];autosize=1;strokeColor=none;fillColor=none;fontColor=#000000;" vertex="1" parent="1">
          <mxGeometry x="545" y="150" width="150" height="40" as="geometry" />
        </mxCell>
      </root>
    </mxGraphModel>
  </diagram>
</mxfile>
